<svg xmlns="http://www.w3.org/2000/svg" width="1200" height="630" viewBox="0 0 1200 630">
  <defs>
    <pattern id="dots" width="32" height="32" patternUnits="userSpaceOnUse">
      <circle cx="1" cy="1" r="1.4" fill="#d8dcdb" />
    </pattern>
  </defs>
  <rect width="1200" height="630" fill="#eef0ef" />
  <rect width="1200" height="630" fill="url(#dots)" />

  <rect x="90" y="90" width="1020" height="450" rx="14" fill="#ffffff" stroke="#d8dcdb" stroke-width="2" />
  <rect x="90" y="90" width="1020" height="56" rx="14" fill="#f4f6f5" stroke="#d8dcdb" stroke-width="2" />
  <circle cx="122" cy="118" r="6" fill="#96502d" />
  <circle cx="146" cy="118" r="6" fill="#d8dcdb" />
  <circle cx="170" cy="118" r="6" fill="#d8dcdb" />

  <rect x="112" y="170" width="230" height="150" rx="8" fill="#f4f6f5" />
  <rect x="126" y="184" width="202" height="90" rx="6" fill="#e3d2c4" />
  <rect x="126" y="284" width="140" height="12" rx="6" fill="#14181a" opacity="0.7" />

  <rect x="360" y="170" width="230" height="150" rx="8" fill="#f4f6f5" />
  <rect x="374" y="184" width="202" height="90" rx="6" fill="#e3d2c4" />
  <rect x="374" y="284" width="140" height="12" rx="6" fill="#14181a" opacity="0.7" />

  <rect x="608" y="170" width="230" height="150" rx="8" fill="#f4f6f5" />
  <rect x="622" y="184" width="202" height="90" rx="6" fill="#e3d2c4" />
  <rect x="622" y="284" width="140" height="12" rx="6" fill="#14181a" opacity="0.7" />

  <rect x="856" y="170" width="196" height="150" rx="8" fill="#f4f6f5" />
  <rect x="870" y="184" width="168" height="90" rx="6" fill="#e3d2c4" />
  <rect x="870" y="284" width="110" height="12" rx="6" fill="#14181a" opacity="0.7" />

  <rect x="112" y="344" width="940" height="148" rx="8" fill="#f4f6f5" />
  <rect x="136" y="368" width="180" height="14" rx="7" fill="#96502d" />
  <rect x="136" y="398" width="420" height="10" rx="5" fill="#c7cdcc" />
  <rect x="136" y="420" width="360" height="10" rx="5" fill="#c7cdcc" />
  <rect x="792" y="392" width="216" height="44" rx="8" fill="#96502d" />

  <text x="90" y="580" font-family="JetBrains Mono, monospace" font-size="22" font-weight="700" letter-spacing="2" fill="#14181a">AMERICO_MARKET</text>
  <text x="90" y="606" font-family="JetBrains Mono, monospace" font-size="13" letter-spacing="1.5" fill="#9aa3a6">VISTA PREVIA PLACEHOLDER — REEMPLAZAR CON CAPTURA REAL</text>
</svg>
