<svg xmlns="http://www.w3.org/2000/svg" width="1200" height="630" viewBox="0 0 1200 630">
  <defs>
    <pattern id="dots" width="32" height="32" patternUnits="userSpaceOnUse">
      <circle cx="1" cy="1" r="1.4" fill="#d8dcdb" />
    </pattern>
  </defs>
  <rect width="1200" height="630" fill="#eef0ef" />
  <rect width="1200" height="630" fill="url(#dots)" />

  <rect x="90" y="90" width="1020" height="450" rx="14" fill="#ffffff" stroke="#d8dcdb" stroke-width="2" />
  <rect x="90" y="90" width="1020" height="56" rx="14" fill="#f4f6f5" stroke="#d8dcdb" stroke-width="2" />
  <circle cx="122" cy="118" r="6" fill="#2f6b4f" />
  <circle cx="146" cy="118" r="6" fill="#d8dcdb" />
  <circle cx="170" cy="118" r="6" fill="#d8dcdb" />

  <rect x="112" y="170" width="190" height="350" rx="8" fill="#f4f6f5" />
  <rect x="132" y="196" width="130" height="12" rx="6" fill="#2f6b4f" />
  <rect x="132" y="228" width="150" height="34" rx="6" fill="#ffffff" stroke="#d8dcdb" stroke-width="1.5" />
  <rect x="132" y="272" width="150" height="34" rx="6" fill="#ffffff" stroke="#d8dcdb" stroke-width="1.5" />
  <rect x="132" y="316" width="150" height="34" rx="6" fill="#ffffff" stroke="#d8dcdb" stroke-width="1.5" />

  <rect x="330" y="170" width="740" height="200" rx="8" fill="#f4f6f5" />
  <circle cx="470" cy="270" r="60" fill="none" stroke="#2f6b4f" stroke-width="10" stroke-dasharray="280 96" />
  <text x="470" y="278" font-family="JetBrains Mono, monospace" font-size="26" font-weight="700" fill="#14181a" text-anchor="middle">74%</text>
  <rect x="580" y="200" width="460" height="16" rx="8" fill="#dfe3e2" />
  <rect x="580" y="200" width="300" height="16" rx="8" fill="#2f6b4f" />
  <rect x="580" y="234" width="460" height="16" rx="8" fill="#dfe3e2" />
  <rect x="580" y="234" width="210" height="16" rx="8" fill="#96502d" />
  <rect x="580" y="268" width="460" height="16" rx="8" fill="#dfe3e2" />
  <rect x="580" y="268" width="380" height="16" rx="8" fill="#35506b" />

  <rect x="330" y="386" width="740" height="106" rx="8" fill="#f4f6f5" />
  <rect x="352" y="408" width="180" height="12" rx="6" fill="#2f6b4f" />
  <rect x="352" y="436" width="400" height="10" rx="5" fill="#c7cdcc" />
  <rect x="352" y="458" width="320" height="10" rx="5" fill="#c7cdcc" />

  <text x="90" y="580" font-family="JetBrains Mono, monospace" font-size="22" font-weight="700" letter-spacing="2" fill="#14181a">CLUB_MASTER</text>
  <text x="90" y="606" font-family="JetBrains Mono, monospace" font-size="13" letter-spacing="1.5" fill="#9aa3a6">VISTA PREVIA PLACEHOLDER — REEMPLAZAR CON CAPTURA REAL</text>
</svg>
