<svg xmlns="http://www.w3.org/2000/svg" width="1200" height="630" viewBox="0 0 1200 630">
  <defs>
    <pattern id="dots" width="32" height="32" patternUnits="userSpaceOnUse">
      <circle cx="1" cy="1" r="1.4" fill="#d8dcdb" />
    </pattern>
  </defs>
  <rect width="1200" height="630" fill="#eef0ef" />
  <rect width="1200" height="630" fill="url(#dots)" />

  <rect x="90" y="90" width="1020" height="450" rx="14" fill="#ffffff" stroke="#d8dcdb" stroke-width="2" />
  <rect x="90" y="90" width="1020" height="56" rx="14" fill="#f4f6f5" stroke="#d8dcdb" stroke-width="2" />
  <circle cx="122" cy="118" r="6" fill="#35506b" />
  <circle cx="146" cy="118" r="6" fill="#d8dcdb" />
  <circle cx="170" cy="118" r="6" fill="#d8dcdb" />

  <rect x="112" y="170" width="190" height="350" rx="8" fill="#f4f6f5" />
  <rect x="132" y="196" width="130" height="12" rx="6" fill="#35506b" />
  <rect x="132" y="228" width="150" height="10" rx="5" fill="#c7cdcc" />
  <rect x="132" y="252" width="150" height="10" rx="5" fill="#c7cdcc" />
  <rect x="132" y="276" width="110" height="10" rx="5" fill="#c7cdcc" />

  <rect x="330" y="170" width="740" height="90" rx="8" fill="#f4f6f5" />
  <rect x="352" y="192" width="220" height="14" rx="7" fill="#14181a" opacity="0.75" />
  <rect x="352" y="220" width="340" height="10" rx="5" fill="#9aa3a6" />

  <rect x="330" y="276" width="356" height="120" rx="8" fill="#f4f6f5" />
  <rect x="352" y="298" width="160" height="12" rx="6" fill="#35506b" />
  <rect x="352" y="326" width="290" height="10" rx="5" fill="#c7cdcc" />
  <rect x="352" y="348" width="230" height="10" rx="5" fill="#c7cdcc" />

  <rect x="714" y="276" width="356" height="120" rx="8" fill="#f4f6f5" />
  <rect x="736" y="298" width="160" height="12" rx="6" fill="#96502d" />
  <rect x="736" y="326" width="290" height="10" rx="5" fill="#c7cdcc" />
  <rect x="736" y="348" width="230" height="10" rx="5" fill="#c7cdcc" />

  <rect x="330" y="412" width="740" height="80" rx="8" fill="#f4f6f5" />

  <text x="90" y="580" font-family="JetBrains Mono, monospace" font-size="22" font-weight="700" letter-spacing="2" fill="#14181a">LINEAR_CLONE_FRONT</text>
  <text x="90" y="606" font-family="JetBrains Mono, monospace" font-size="13" letter-spacing="1.5" fill="#9aa3a6">VISTA PREVIA PLACEHOLDER — REEMPLAZAR CON CAPTURA REAL</text>
</svg>
