<svg xmlns="http://www.w3.org/2000/svg" width="1200" height="630" viewBox="0 0 1200 630">
  <defs>
    <pattern id="dots" width="32" height="32" patternUnits="userSpaceOnUse">
      <circle cx="1" cy="1" r="1.4" fill="#d8dcdb" />
    </pattern>
  </defs>
  <rect width="1200" height="630" fill="#eef0ef" />
  <rect width="1200" height="630" fill="url(#dots)" />

  <rect x="90" y="90" width="1020" height="450" rx="14" fill="#ffffff" stroke="#d8dcdb" stroke-width="2" />
  <rect x="90" y="90" width="1020" height="56" rx="14" fill="#f4f6f5" stroke="#d8dcdb" stroke-width="2" />
  <circle cx="122" cy="118" r="6" fill="#6b4a2f" />
  <circle cx="146" cy="118" r="6" fill="#d8dcdb" />
  <circle cx="170" cy="118" r="6" fill="#d8dcdb" />

  <rect x="112" y="170" width="996" height="260" rx="8" fill="#f4f6f5" />
  <rect x="136" y="196" width="300" height="16" rx="8" fill="#14181a" opacity="0.75" />
  <rect x="136" y="228" width="420" height="12" rx="6" fill="#9aa3a6" />
  <rect x="136" y="250" width="340" height="12" rx="6" fill="#9aa3a6" />
  <rect x="136" y="300" width="180" height="44" rx="8" fill="#6b4a2f" />

  <path d="M 620 340 L 700 300 L 1030 300 L 1060 340 L 1060 380 L 620 380 Z" fill="#e6d9cd" stroke="#6b4a2f" stroke-width="3" />
  <circle cx="690" cy="384" r="24" fill="#14181a" opacity="0.8" />
  <circle cx="690" cy="384" r="10" fill="#eef0ef" />
  <circle cx="980" cy="384" r="24" fill="#14181a" opacity="0.8" />
  <circle cx="980" cy="384" r="10" fill="#eef0ef" />

  <rect x="112" y="450" width="470" height="70" rx="8" fill="#f4f6f5" />
  <rect x="136" y="470" width="160" height="12" rx="6" fill="#6b4a2f" />
  <rect x="136" y="492" width="300" height="10" rx="5" fill="#c7cdcc" />

  <rect x="616" y="450" width="492" height="70" rx="8" fill="#f4f6f5" />
  <rect x="640" y="470" width="160" height="12" rx="6" fill="#35506b" />
  <rect x="640" y="492" width="300" height="10" rx="5" fill="#c7cdcc" />

  <text x="90" y="580" font-family="JetBrains Mono, monospace" font-size="22" font-weight="700" letter-spacing="2" fill="#14181a">RUTA_CAR</text>
  <text x="90" y="606" font-family="JetBrains Mono, monospace" font-size="13" letter-spacing="1.5" fill="#9aa3a6">VISTA PREVIA PLACEHOLDER — REEMPLAZAR CON CAPTURA REAL</text>
</svg>
